<?xml version="1.0" encoding="UTF-8"?>
<!DOCTYPE svg  PUBLIC '-//W3C//DTD SVG 1.1//EN'  'http://www.w3.org/Graphics/SVG/1.1/DTD/svg11.dtd'>
<svg width="200px" enable-background="new 0 0 800 800" version="1.1" viewBox="0 0 800 800" xml:space="preserve" xmlns="http://www.w3.org/2000/svg">
<path d="m566 189.3c13.5 0 25 62.6 25 113.9 0 35.5-5.1 63.5-14.1 77.1 1 44 3.4 87.9 6.1 131.9 1.4 22 2.8 43.9 4.1 65.9 0.4 6.9 3.6 16.1 0 22.6-3.9 7.2-15 10.6-22.7 9.2-17.8-3.3-14.9-16.1-14-29.7 1.4-19.3 2.5-38.6 3.5-57.9 1.5-28 2.6-56.1 3.3-84.1 0.3-12 0.6-24.1 0.6-36.1 0-5.8 2.3-16.3 0.2-21.7-5.9-15.3-6.4-53.7-6.4-91.6 0.3-54.5 1.3-99.5 14.4-99.5z" fill="#231F20"/>
<path d="m210.9 304.8c0-10.8 1-21.7 1.5-32.5 0.9-18.8 1.8-37.7 2.7-56.5 0.2-4.6 0.4-9.2 0.7-13.9 0.1-2.1-0.3-4.4 0.2-6.5 0.6-2.7 3.5-4.8 4.6-0.8 0.9 3.2 0.2 7.9 0.2 11.3 0.2 8.4 0.2 16.9 0.2 25.3 0 16.9-0.3 33.7-0.3 50.6v11.2c0 0.9 0.4 1.7 1 2.3s1.5 1 2.4 1c1.9 0 3.4-1.4 3.4-3.2 0.3-17.4 0.5-34.7 0.7-52.1 0.1-8.7 0.2-17.4 0.4-26 0.1-4.5-0.3-9 0-13.5 0.2-2.4 0.5-4.8 1.1-7.1 0.2-0.8 0.6-2.9 1.4-3.4 3-1.6 3.5 4.8 3.4 6.2-0.3 3.8 0.4 7.6 0.5 11.4 0.1 6.3 0.2 12.7 0.3 19 0 21.8 0.9 43.5 0.9 65.3 0 1.8 1.5 3.2 3.4 3.2s3.4-1.4 3.4-3.2c0.3-17.8 0.7-35.5 0.9-53.3 0.1-8.9 0.3-17.8 0.3-26.7 0-4.4 0.1-8.9 0.1-13.3 0-1.9-0.1-3.9 0.4-5.6 1-3.2 3.1-3.3 4.5-0.4 1.4 3 0.8 7.3 0.9 10.5 0.3 9.6 0.4 19.2 0.6 28.8 0.3 19.2 0.4 38.4 0.5 57.6v2.3c0 0.9 0.4 1.7 1 2.3s1.5 0.9 2.4 0.9c1.9 0 3.4-1.5 3.4-3.3v-91.3c0-3.7 0.5-12.4 4.8-6.5 0.2 0.2 0.2 0.5 0.3 0.7l5.2 108.9c0 9.7-3.2 18.4-8.4 24.8-3.4 4.1-7 7.2-11.8 8.9 0 0-0.6 59.8-0.6 61-0.6 55.7 9 113.1 14 168.8 0.8 9.1 1.6 18.5-1.5 27-3.1 8.6-11.2 16-20.3 15.3-8.1-0.7-14.6-7.7-17.2-15.5s-2-16.2-1.4-24.3c1.3-18.1 18.1-232.4 10-232.4-11.7-3.9-20.2-17.4-20.2-33.3z" fill="#231F20"/>
<path d="m408.8 184.6c20.7 0 39 50.9 39 91 0 32.7-12.7 61.9-30.2 69.6-0.1 13.7-0.5 27.3-1.5 40.9-1.5 20.5 2.6 42.6 4.2 63.1 3.4 43.9 6.8 87.8 10.2 131.8 0.8 10.2 1.1 21.9-6.3 29.1-7.3 7.1-20.2 6.2-27.5-1-8.9-8.8-6.6-23.2-6.4-34.5 0.4-16.8 2.7-33.9 4-50.7 3.1-39.3 6.1-78.5 7.8-117.7l-1.6-60.6c-17.9-7.3-30.8-36.6-30.8-69.9 0.1-40.2 18.4-91.1 39.1-91.1z" fill="#231F20"/>
</svg>
